<?xml version="1.0" standalone="no"?><!DOCTYPE svg PUBLIC "-//W3C//DTD SVG 1.1//EN" "http://www.w3.org/Graphics/SVG/1.1/DTD/svg11.dtd"><svg t="1699413503430" class="icon" viewBox="0 0 1024 1024" version="1.1" xmlns="http://www.w3.org/2000/svg" p-id="4095" xmlns:xlink="http://www.w3.org/1999/xlink" width="200" height="200"><path d="M406.905263 509.305263m-132.042105 0a132.042105 132.042105 0 1 0 264.08421 0 132.042105 132.042105 0 1 0-264.08421 0Z" fill="#10ABFF" opacity=".4" p-id="4096"></path><path d="M59.284211 304.505263c-10.778947 0-18.863158 8.084211-18.863158 18.863158v414.989474c0 10.778947 8.084211 18.863158 18.863158 18.863158s18.863158-8.084211 18.863157-18.863158V323.368421c0-10.778947-8.084211-18.863158-18.863157-18.863158zM964.715789 304.505263h-269.473684c-10.778947 0-18.863158 8.084211-18.863158 18.863158s8.084211 18.863158 18.863158 18.863158h115.873684v396.126316c0 10.778947 8.084211 18.863158 18.863158 18.863158s18.863158-8.084211 18.863158-18.863158V342.231579h115.873684c10.778947 0 18.863158-8.084211 18.863158-18.863158s-8.084211-18.863158-18.863158-18.863158zM350.315789 309.894737c37.726316-21.557895 83.536842-18.863158 121.263158 5.389474 2.694737 2.694737 5.389474 2.694737 10.778948 2.694736s13.473684-2.694737 16.168421-8.08421c5.389474-8.084211 2.694737-21.557895-5.389474-26.947369-48.505263-29.642105-110.484211-32.336842-158.989474-5.389473-8.084211 5.389474-13.473684 16.168421-8.08421 24.252631 2.694737 10.778947 13.473684 13.473684 24.252631 8.084211zM565.894737 212.884211c-88.926316-70.063158-215.578947-72.757895-304.505263-8.084211-8.084211 5.389474-10.778947 18.863158-5.389474 26.947368 5.389474 8.084211 18.863158 10.778947 26.947368 5.389474 78.147368-56.589474 185.936842-53.894737 261.389474 5.389474 2.694737 2.694737 8.084211 2.694737 10.778947 2.694737 5.389474 0 10.778947-2.694737 16.168422-8.084211 2.694737-5.389474 2.694737-16.168421-5.389474-24.252631z" fill="#10ABFF" p-id="4097"></path><path d="M194.021053 142.821053c-8.084211 5.389474-10.778947 18.863158-2.694737 26.947368 5.389474 8.084211 18.863158 10.778947 26.947368 2.694737 113.178947-88.926316 277.557895-86.231579 388.042105 5.389474 2.694737 2.694737 8.084211 5.389474 10.778948 5.389473 5.389474 0 10.778947-2.694737 13.473684-8.08421 5.389474-8.084211 5.389474-18.863158-2.694737-26.947369-123.957895-102.4-307.2-105.094737-433.852631-5.389473zM471.578947 711.410526c-37.726316 24.252632-83.536842 24.252632-121.263158 5.389474-8.084211-5.389474-21.557895-2.694737-24.252631 8.084211-5.389474 8.084211-2.694737 21.557895 8.08421 24.252631 24.252632 13.473684 48.505263 18.863158 75.452632 18.863158 29.642105 0 59.284211-8.084211 83.536842-24.252632 8.084211-5.389474 10.778947-16.168421 5.389474-26.947368-8.084211-10.778947-18.863158-13.473684-26.947369-5.389474zM258.694737 816.505263c43.115789 32.336842 97.010526 45.810526 148.210526 45.810526 56.589474 0 113.178947-18.863158 158.989474-53.894736 8.084211-5.389474 10.778947-18.863158 2.694737-26.947369-5.389474-8.084211-18.863158-10.778947-26.947369-2.694737-75.452632 59.284211-183.242105 61.978947-261.389473 5.389474-8.084211-5.389474-21.557895-5.389474-26.947369 5.389474-5.389474 10.778947-2.694737 21.557895 5.389474 26.947368z" fill="#10ABFF" p-id="4098"></path><path d="M603.621053 846.147368c-110.484211 91.621053-274.863158 94.315789-388.042106 5.389474-8.084211-5.389474-18.863158-5.389474-26.947368 2.694737-5.389474 8.084211-5.389474 18.863158 2.694737 26.947368 61.978947 48.505263 137.431579 72.757895 212.88421 72.757895 78.147368 0 158.989474-26.947368 220.968421-78.147368 8.084211-5.389474 8.084211-18.863158 2.694737-26.947369s-16.168421-8.084211-24.252631-2.694737zM258.694737 509.305263c0 83.536842 67.368421 150.905263 150.905263 150.905263 83.536842 0 150.905263-67.368421 150.905263-150.905263 0-83.536842-67.368421-150.905263-150.905263-150.905263-83.536842 0-150.905263 67.368421-150.905263 150.905263z m148.210526-113.178947c61.978947 0 113.178947 51.2 113.178948 113.178947s-51.2 113.178947-113.178948 113.178948c-61.978947 0-113.178947-51.2-113.178947-113.178948s51.2-113.178947 113.178947-113.178947z" fill="#10ABFF" p-id="4099"></path></svg>